<?xml version="1.0" encoding="UTF-8"?>
<svg id="Camada_1" data-name="Camada 1" xmlns="http://www.w3.org/2000/svg" viewBox="0 0 157.5 163.1">
  <defs>
    <style>
      .cls-1 {
        fill: #333;
      }
    </style>
  </defs>
  <path class="cls-1" d="m127.91,78.16c-.47-5.89-1.97-11.5-4.31-16.63l16.89-14.03c-4.28-7.66-9.93-14.44-16.63-20.02l-16.9,14.04c-4.66-3.28-9.9-5.78-15.55-7.31V12.25c-4.22-.78-8.57-1.21-13.01-1.21s-8.79.43-13.01,1.21v21.95c-7.94,2.15-15.1,6.22-20.93,11.68l-18.69-11.55c-5.83,6.42-10.49,13.91-13.68,22.14l18.68,11.54c-1.33,4.48-2.05,9.22-2.05,14.14,0,.99.04,1.96.09,2.94l-20.82,6.99c1.24,8.85,4.1,17.18,8.29,24.67l20.81-6.99c3.21,4.8,7.24,9,11.88,12.42l-7.92,20.49c7.32,4.53,15.52,7.75,24.28,9.38l7.92-20.47c1.7.17,3.42.27,5.16.27,4.14,0,8.15-.51,11.99-1.47l10.69,19.18c8.38-2.82,16.07-7.14,22.73-12.68l-10.7-19.19c4.1-4.01,7.52-8.72,10.05-13.94l21.58,4.03c3.07-7.94,4.77-16.56,4.77-25.59l-21.6-4.03Zm-49.52,30.03c-14.37,0-26.03-11.65-26.03-26.03s11.65-26.03,26.03-26.03,26.03,11.65,26.03,26.03-11.65,26.03-26.03,26.03Z"/>
</svg>