<?xml version="1.0" encoding="UTF-8"?>
<svg id="Camada_1" data-name="Camada 1" xmlns="http://www.w3.org/2000/svg" viewBox="0 0 157.5 163.1">
  <defs>
    <style>
      .cls-1 {
        fill: #333;
      }
    </style>
  </defs>
  <polygon class="cls-1" points="40.07 123.34 41.01 152.06 64.7 135.8 109.22 47.82 84.78 34.98 40.07 123.34"/>
  <g>
    <path class="cls-1" d="m29.42,144.19c-7.34,0-13.28-5.95-13.28-13.28V32.24c0-7.34,5.95-13.28,13.28-13.28h60.34l1.73-3.42s.05-.07.07-.11H28.51c-8.78,0-15.9,7.12-15.9,15.9v100.48c0,8.78,7.12,15.9,15.9,15.9h9.47l-.12-3.53h-8.44Z"/>
    <path class="cls-1" d="m128.99,15.43h-11.81c1.42.93,2.61,2.12,3.51,3.53h7.4c7.34,0,13.28,5.95,13.28,13.28v98.66c0,7.34-5.95,13.28-13.28,13.28H57.59l-5.15,3.53h76.55c8.78,0,15.9-7.12,15.9-15.9V31.33c0-8.78-7.12-15.9-15.9-15.9Z"/>
  </g>
  <path class="cls-1" d="m114.77,17.3l-8.69-4.4c-4.4-2.23-9.77-.46-12,3.94l-8.06,15.94,24.44,12.85,8.26-16.32c2.23-4.4.46-9.77-3.94-12Z"/>
</svg>