<svg id="Camada_1" data-name="Camada 1" xmlns="http://www.w3.org/2000/svg" viewBox="0 0 100 100"><defs><style>.cls-1,.cls-4,.cls-7{fill:#fff;}.cls-1,.cls-2,.cls-4,.cls-7,.cls-8{stroke:#1d1d1b;stroke-miterlimit:10;}.cls-1,.cls-2{stroke-width:0.75px;}.cls-2,.cls-3,.cls-5,.cls-6,.cls-8{fill:#1d1d1b;}.cls-4{stroke-width:0.5px;}.cls-5{font-size:33.62px;}.cls-5,.cls-6{font-family:Eurostile-Bold, Eurostile Bold;font-weight:700;}.cls-6{font-size:13.75px;}.cls-7,.cls-8{stroke-width:0.25px;}</style></defs><path class="cls-1" d="M67.8,24.44l-4,1.6A2.54,2.54,0,0,0,63,24.69a2.49,2.49,0,0,0-1.48-.56l.84-4.19A1.19,1.19,0,0,1,64,19.76a1.21,1.21,0,0,1,.11,1.71A1.18,1.18,0,1,1,66,23a1.18,1.18,0,1,1,1.84,1.46Z"/><path class="cls-1" d="M74,9.5l-9.89,12A1.21,1.21,0,0,0,64,19.76a1.19,1.19,0,0,0-1.67.18h0L72.22,8Z"/><path class="cls-1" d="M77.67,12.51,67.81,24.44h0A1.18,1.18,0,1,0,66,23l9.9-12Z"/><rect class="cls-1" x="74.61" y="6.02" width="1.82" height="7.08" transform="translate(20.03 61.67) rotate(-50.41)"/><path class="cls-1" d="M80.73,8.81l-1.9,2.3L73.38,6.6l1.9-2.3a1.14,1.14,0,0,1,1.61-.15L80.57,7.2A1.14,1.14,0,0,1,80.73,8.81Z"/><path class="cls-2" d="M63.84,26,60.9,27.23l.62-3.1a2.49,2.49,0,0,1,1.48.56A2.54,2.54,0,0,1,63.84,26Z"/><path class="cls-1" d="M62.36,19.94l0,0"/><path class="cls-1" d="M67.78,24.48s0,0,0,0"/><path class="cls-1" d="M75.86,11,66,23a1.18,1.18,0,1,0-1.82-1.51L74,9.5Z"/><rect class="cls-3" x="24.49" y="16.76" width="60.11" height="79.35" rx="3.15"/><rect class="cls-4" x="15.4" y="7.8" width="60.11" height="79.35" rx="3.15"/><text class="cls-5" transform="translate(28.29 49.84)">ID</text><text class="cls-6" transform="translate(33.2 64.24)">MA<tspan x="-2.69" y="12.22">KER</tspan></text><path class="cls-7" d="M67.8,24.44l-4,1.6A2.54,2.54,0,0,0,63,24.69a2.49,2.49,0,0,0-1.48-.56l.84-4.19A1.19,1.19,0,0,1,64,19.76a1.21,1.21,0,0,1,.11,1.71A1.18,1.18,0,1,1,66,23a1.18,1.18,0,1,1,1.84,1.46Z"/><path class="cls-7" d="M74,9.5l-9.89,12A1.21,1.21,0,0,0,64,19.76a1.19,1.19,0,0,0-1.67.18h0L72.22,8Z"/><path class="cls-7" d="M77.67,12.51,67.81,24.44h0A1.18,1.18,0,1,0,66,23l9.9-12Z"/><rect class="cls-7" x="74.61" y="6.02" width="1.82" height="7.08" transform="translate(20.03 61.67) rotate(-50.41)"/><path class="cls-8" d="M80.73,8.81l-1.9,2.3L73.38,6.6l1.9-2.3a1.14,1.14,0,0,1,1.61-.15L80.57,7.2A1.14,1.14,0,0,1,80.73,8.81Z"/><path class="cls-8" d="M63.84,26,60.9,27.23l.62-3.1a2.49,2.49,0,0,1,1.48.56A2.54,2.54,0,0,1,63.84,26Z"/><path class="cls-7" d="M62.36,19.94l0,0"/><path class="cls-7" d="M67.78,24.48s0,0,0,0"/><path class="cls-7" d="M75.86,11,66,23a1.18,1.18,0,1,0-1.82-1.51L74,9.5Z"/><rect class="cls-2" x="35.76" y="11.85" width="19.38" height="4.39" rx="1.81"/></svg>