<?xml version="1.0" encoding="UTF-8"?>
<svg id="Camada_1" data-name="Camada 1" xmlns="http://www.w3.org/2000/svg" viewBox="0 0 157.5 163.1">
  <defs>
    <style>
      .cls-1 {
        fill: #333;
      }

      .cls-2 {
        fill: none;
      }

      .cls-3 {
        fill: #f2f2f2;
      }
    </style>
  </defs>
  <polygon class="cls-3" points="109.38 50.15 52.01 50.15 52.01 7.1 94.23 7.1 109.38 20.61 109.38 50.15"/>
  <g>
    <polygon class="cls-2" points="93.32 22.03 92.76 8.65 53.57 8.65 53.57 62.91 107.82 62.91 107.82 22.15 93.32 22.03"/>
    <polygon class="cls-2" points="95.96 10.73 96.31 18.94 105.26 19.02 95.96 10.73"/>
    <path class="cls-1" d="m94.82,5.54h-44.37v44.61h60.48v-30.24l-16.11-14.37Zm-41.26,44.61V8.65h39.2l.56,13.38,14.5.12v28h-54.26ZM95.96,10.73l9.29,8.29-8.95-.08-.34-8.21Z"/>
  </g>
  <path class="cls-1" d="m111.74,42.5H45.76c-7.09,0-12.84,5.75-12.84,12.84v51.35c0,7.09,5.75,12.84,12.84,12.84h65.97c7.09,0,12.84-5.75,12.84-12.84v-51.35c0-7.09-5.75-12.84-12.84-12.84Zm-2.35,21.17c-3.31,0-5.99-2.68-5.99-5.99s2.68-5.99,5.99-5.99,5.99,2.68,5.99,5.99-2.68,5.99-5.99,5.99Z"/>
  <g>
    <rect class="cls-3" x="52.01" y="98.63" width="57.37" height="57.37"/>
    <path class="cls-1" d="m110.94,157.56h-60.48v-60.48h60.48v60.48Zm-57.37-3.11h54.26v-54.26h-54.26v54.26Z"/>
  </g>
  <circle class="cls-1" cx="66.59" cy="122.02" r="5.99"/>
  <polygon class="cls-1" points="58.11 147.53 66.59 131.97 78.75 139.75 97.73 116.02 101.81 147.53 58.11 147.53"/>
</svg>