<?xml version="1.0" encoding="utf-8"?>
<!-- Generator: Adobe Illustrator 27.3.1, SVG Export Plug-In . SVG Version: 6.00 Build 0)  -->
<svg version="1.1" id="layer" xmlns="http://www.w3.org/2000/svg" xmlns:xlink="http://www.w3.org/1999/xlink" x="0px" y="0px"
	 viewBox="0 0 652 652" style="enable-background:new 0 0 652 652;" xml:space="preserve">
<style type="text/css">
	.st0{fill:#54616C;}
	.st1{fill:#BAC0C4;}
</style>
<path class="st0" d="M39.6,272.7l281,146.4c3.4,2,7.8,2,11.3,0l280.5-146.4c5.9-2.9,8.3-10.3,5.4-16.2l0,0c-1-2.4-2.9-3.9-5.4-5.4
	L331.9,104.7c-3.4-2-7.8-2-11.3,0L40.1,251.1c-5.9,2.9-8.3,10.3-5.4,16.6C35.7,269.7,37.7,271.7,39.6,272.7z"/>
<path class="st1" d="M612.4,361.7l-46.5-24L343.1,454.3c-10.8,5.4-23,5.4-33.8,0L86.1,337.8l-46.5,24c-5.9,2.9-8.3,10.3-5.4,16.2
	c1,2.4,2.9,3.9,5.4,5.4l280.5,146.4c3.4,2,7.8,2,11.3,0l280.5-146.4c5.9-2.9,8.3-10.3,5.4-16.2l0,0
	C616.3,364.7,614.3,362.7,612.4,361.7L612.4,361.7z"/>
</svg>
