<?xml version="1.0" encoding="UTF-8"?>
<svg id="Camada_1" data-name="Camada 1" xmlns="http://www.w3.org/2000/svg" viewBox="0 0 376.62 424.09">
  <defs>
    <style>
      .cls-1 {
        fill: #52be61;
      }
    </style>
  </defs>
  <g>
    <path class="cls-1" d="m346.23,276.91c-.01-.44-.24-.23-.42.95l.17.9.25-1.85Z"/>
    <path class="cls-1" d="m344.12,284.72c-.13,1.41-.18,3.06.3,2.23-.03-1.44.17-1.74.11-3.29.21-1.18.52-2.03.6-1.81,0-.43.4-1.82.32-2.49-.52,1.49-.89,3.43-1.12,5.49-.16.42-.16-.02-.2-.13Z"/>
    <path class="cls-1" d="m278,374.52l.71-.23c-.2.05-.44.13-.71.23Z"/>
    <path class="cls-1" d="m210.86,362.51c.42.35.62.47.66.46-.4-.31-.74-.56-.66-.46Z"/>
    <path class="cls-1" d="m202.7,353.38c.16.21.29.39.43.58-.15-.24-.31-.46-.43-.58Z"/>
    <path class="cls-1" d="m278,374.52c-.62.18-1.21.41-1.84.55-.09.16.96-.23,1.84-.55Z"/>
    <path class="cls-1" d="m341,300.6c.1-.4.17-.73.22-1.04-.08.32-.17.64-.25.96.01.02.02.04.03.08Z"/>
    <path class="cls-1" d="m305.06,358.31l.43-.4c.1-.14.19-.29.27-.43l-.69.83Z"/>
    <path class="cls-1" d="m321.04,340.04c-.32.45-.2.76-.22,1.01.08-.32.27-.69.53-1.1-.04-.04-.13-.01-.3.09Z"/>
    <path class="cls-1" d="m338.28,305.52l.18-.67c-.05.17-.13.46-.18.67Z"/>
    <path class="cls-1" d="m290.84,368.28c-.06-.02-.15,0-.24.02.02.03.11.02.24-.02Z"/>
    <path class="cls-1" d="m67.14,48.17s.02-.02.04-.03c-.1-.1-.14-.13-.04.03Z"/>
    <path class="cls-1" d="m50.38,25.48l.29.27c.07,0,.13-.02.17-.05l-.46-.21Z"/>
    <path class="cls-1" d="m190.68,334.5s.02.05.04.09c.3.51.14.22-.04-.09Z"/>
    <path class="cls-1" d="m130.17,356.63c1.05-.45.29.08-.37.53-.67.42-1.22.79.41.14-.32.06,2.52-1.92-.04-.67Z"/>
    <path class="cls-1" d="m340.78,301.2c-.09.32-.19.64-.29.97.14-.44.23-.74.29-.97Z"/>
    <path class="cls-1" d="m130.21,357.3h0s.33-.15.33-.15c-.14.06-.21.1-.33.15Z"/>
    <path class="cls-1" d="m172.93,286.2c-.04.11-.05.31-.06.53.03-.02.05-.14.06-.53Z"/>
    <path class="cls-1" d="m184.42,322.85l-.35-.89c.13.36.24.64.35.89Z"/>
    <path class="cls-1" d="m177.36,267.81c.35-.37.45-.5.9-1.02-.05.04-.11.07-.17.13-.15.2-.33.48-.73.89Z"/>
    <path class="cls-1" d="m192.22,266.67c-.02-.11-.06-.24-.11-.35-.1-.17-.21-.37-.31-.55.14.3.31.59.42.9Z"/>
    <path class="cls-1" d="m87.09,107.72c.02-.46.07-.76.12-.99-.16.34-.64-2.69-.12.99Z"/>
    <path class="cls-1" d="m340.84,300.57c.03.14.01.32-.06.64.06-.23.13-.46.19-.68-.02-.07-.06-.09-.12.04Z"/>
    <path class="cls-1" d="m176.22,265.71c.4-.44.83-.85,1.24-1.28.44-.41.9-.78,1.35-1.18-.38.32-.82.7-1.29,1.09-.42.44-.89.88-1.31,1.36Z"/>
    <path class="cls-1" d="m72.79,256.93l.06-.77c-.04.29-.07.56-.06.77Z"/>
    <path class="cls-1" d="m189.32,259.73l.3.29.15.14.09.09.35.36c.25.23.46.51.7.77.12.09.26.2.35.24l-.83-.91-.45-.41-.66-.58Z"/>
    <path class="cls-1" d="m87.21,106.72s0,0,0,0c0,0,0,0,0,0Z"/>
    <path class="cls-1" d="m82.46,85.42c.79,3.05.71,1.35,1.08,1.94.94,3.66.12,1.77.22,3.06.62,2.27,1.37,3.96,1.63,5.7-.04.14,0,.48-.14.1.36,1.2.69,3.02,1.04,4.89.33,1.87.57,3.81.96,5.22,0,.22-.02.33-.04.39.12-.49.3-.59.44-.51.2,1.41.58,2.59.42,3.15-.11-.86-.22-.93-.35-1.32l.3,1.46c-.17,1.37-.39-2-.65-1.97.13.71.27,1.46.41,2.21.11.75.22,1.51.33,2.25.21,1.47.39,2.87.44,3.98-.3.49-.6-5.17-.62-2.19l-.19-3.44c-.29,2.67-.16-2.08-.5.38.16,2.25.32,3.5.48,4.76.17,1.25.33,2.5.38,4.76.24,1,.26-.35.5.65.7,6.4-.61,5.07-.06,9.77.12.61.29,1.03.41,1.72.13.69.18,1.65.03,3.33l-.36-1.15c-.12,4.37.51,2.51.16,7.09-.13-.82-.06-3.45-.12-2.79-.36,2.96.2,2.11.08,4.39l-.36.46c-.14,4.66-.25,9.81-.65,14.97-.07-.29-.09-1.19-.31,0-.43,6.51-1.51,13.85-2.59,20.06l-.04,2.42c-.09.55-.28,1.01-.25.4-.47,2.41.17.15.11,1.34-.19,1.39-.44,1.8-.4.91-.37,4.32-1.35,12.29-2.42,16.75l.06-.89c-.7,3.49-.06,4.06-.89,7.27l.06-.63c-1.42,7.6-2.61,16.06-4.01,21.81.24,1.18-1.43,7.53-.91,8.11-.95,4.32-.9,3.05-2,9.18-.26,1.64.01,2.51-.22,4.55h-.31s-.05,2.82-.05,2.82l-.55,1.43-.17,1.92c.12-.76.35-1.6.42-1.48-.27,3-1.1,7.27-1.26,7.33-.17,2.37-.36,4.74-.48,7.13-.11-.17-.04-1.37-.03-2.32-.04,3.83-.4.66-.41,4.17.11-.46.16.27.22.35-.35,1.72-.59,5.69-.64,8.63l-.19-.57c-.29,5.31-.16,11.21.12,17.17.01-2.15.4-1.67.51.08l-.28.71c.27,1.12.01-1.83.4.47.1,2.22-.28,1.52-.46.25.1.9.17,1.8.3,2.7-.08.17-.19-.46-.33-.62.15.55.17,1.72.21,2.96.05,1.23.16,2.53.42,3.31l-.08.16c.37,2.97.74,5.12,1.12,7.12.21,1,.41,1.96.62,2.98.24,1.01.48,2.07.76,3.26.3.02.71,1.89,1.31,3.23.89,3.46,1.98,7.33,3.8,11.28,1.43,2.7.6.7,1.34,1.86-.05.15.37,1.21.74,1.96.36.75.59,1.23-.05.29,1.27,2.28,2.2,3.68,3.26,5.19,1.1,1.48,2.3,3.12,4.61,5.48-.41-.6-.91-1.22-.57-.97.84.85,1.75,2.09,1.55,2.04-.08-.07-.16-.14-.24-.21,2.7,2.54,5.89,5.42,9.33,7.69,3.37,2.3,7.15,3.97,10.17,4.35l-.34-.04c2.06.38,4.14.58,6.21.51,2.86.06-1.72.18.4.35,3.38-.22,6-.63,8.42-1.28,2.41-.65,4.66-1.42,7.04-2.82.51-.17,1.1-.43,1.75-.74.65-.32,1.34-.74,2.07-1.2.72-.49,1.47-1.03,2.21-1.67.38-.3.73-.68,1.1-1.03.37-.36.66-.71,1-1.06,2.65-2.83,5.26-5.93,7.27-7.9l-.35.13c.82-1.2,1.21-1.27,1.93-2.06-.2.03-1.13,1.1-.63.35,7.76-9.5,15.77-19.75,23.92-29.15,1.48-1.73,1.75-2.35,2.12-3.07.38-.72.9-1.53,2.98-3.51l-.84,1.43c1.45-1.78,3.01-3.5,4.59-5.21,1.64-1.74,3.21-3.55,4.69-5.43,2.95-3.76,5.56-7.79,7.38-12.06-.17.53-.08.59-.49,1.4.55-.82,1.34-2.46,1.86-3.96.54-1.49.83-2.81.74-2.85.44-1.39.27-.27.62-1.11.33-.95.54-2.2.65-3.34.12-1.14.13-2.17.29-2.71.05-.18.03.57.02.95,0-.66.1-2.21-.03-3.45-.11-1.23-.32-2.12-.35-1.47-.43-3.66-2.4-6.66-4.39-8.74-.39-.31-.9-.71-1.46-1.15-.21-.17-.42-.34-.63-.52-.09-.13-.25-.07-.38-.06l-.41.05c-.41.04-.83.09-1.23.13-.69.1-1.34.28-1.84.41-.49.19-.83.37-.94.52.06-.26-1.53.15-3.17,1.18-1.65.99-3.27,2.55-3.93,3.47.22-.32-.16,0-.51.33-.33.34-.67.67-.46.26-1.69,2-2.71,4.18-2.3,3.88-1.4,1.93-2.16,4.26-2.55,6.35-.39,2.11-.45,3.92-.87,5.23-.01,3.8.55,7.38,1.39,10.75.82,3.37,1.89,6.55,2.98,9.65-.25-.04-.85-1.76-1.37-3.44-.54-1.68-.99-3.32-1.18-3.12,1.87,6.04,3.54,9.23,5.51,15.09.51,1.52-.51-.78-.76-1.26,2.32,5.78,4.29,11.26,6.78,16.23-.04,0-.33-.53-.58-1.03.44,1,.98,2.35,1.12,2.15l-.5-.94c-.47-1.7,2.41,3.67,2.64,3.77-.66-.71-.12.54.37,1.68.51,1.12.95,2.13-.06.99.37.62.87,1.38.91,1.17.45.97.54,1.31-.1.41,1.9,3.44,1.44,2.1,3.19,5.19-.09.04-.48-.57-.76-.83,1.07,1.46,2.07,2.97,3.63,5.53-.15-.12-.03.22-.5-.54.69,1.09,1.36,2.08,2.01,3.03.69.93,1.39,1.8,2.07,2.7,1.34,1.82,2.87,3.57,4.54,5.85-.68-.52-.41-.12.02.47.43.59,1.09,1.31,1.04,1.55l2.12,2.2-.68-1.04c1.72,2.05,3.7,3.42,5.23,5.13l-1.53-1.27,1.82,1.72c.63.55,1.29,1.06,1.93,1.59-.68-.66-1.41-1.26-2.05-1.96,2.14,1.65.08-.52,2.71,1.84-.29-.22.22.21.92.83.34.31.74.67,1.11,1.01.38.32.75.62,1,.87h0c1.15.66,2.3,1.36,3.88,2.54.38.36-.58.14-.33.37,1.3.39,5.41,3.18,7.12,3.46-.53-.17-.64,0-.5.11l1.1.24c1.08.6,1.23.72.98.77,1.67.83,1.47.55,1.3.4-.15-.18-.25-.27,1.79.58-.33-.1-.19,0-.88-.22,2.07.78,4.06,1.61,6.12,2.03,1.02.25,2.02.51,3.02.76,1,.24,2.02.37,3.01.59,1.12.57-3.53-.51-2.23.03,5.82,1.18,12.17,1.07,17.82.8l-1.06.04c.38-.29,1.43-.31,2.75-.31.66-.01,1.39.03,2.12-.05.73-.08,1.48-.19,2.18-.36-.69.15-.87.43-.69.34.97-.13,1.94-.27,2.95-.44,1.01-.15,2.03-.47,3.12-.73,1.08-.3,2.24-.54,3.45-.95,1.2-.4,2.49-.84,3.89-1.31l-.66.34c.55-.15,1.21-.28,1.88-.53.67-.24,1.38-.5,2.1-.77,1.44-.53,2.91-1.05,4.03-1.57.62-.43,1.91-.99,1.05-.82.91-.3,1.79-.63,2.66-.98.84-.39,1.67-.82,2.48-1.24.81-.43,1.6-.87,2.38-1.31.76-.47,1.5-.98,2.23-1.47.73-.49,1.46-.97,2.19-1.46.73-.48,1.4-1.03,2.1-1.52,1.39-1.01,2.83-1.91,4.22-2.89-.63.51-1.43,1.31-.93.91,1.46-1.26,2.96-2.46,4.37-3.77-.48.14-.65.41-1.71,1.03.23-.29.67-.68,1.14-1.17.46-.49,1-1.03,1.52-1.51-1.79,1.87.26.26,1.18-.41-.19.08.04-.24-.08-.23,2.48-1.76.09-.63,3.12-3.38l-.06.24c.99-1.17,1.9-2.25,2.97-3.51.64-.35-.96,1.32-.88,1.55.76-.88,1.4-1.84,2.06-2.75.65-.91,1.33-1.76,2.06-2.52-.52.85-1.46,1.91-2.04,2.71.86-.77,1.33-1.22,1.71-1.64.36-.44.66-.83,1.2-1.49l-.11.13c.83-1.02,1.69-2.02,2.51-3.05-.21.26-.45.5-.67.76,1.13-2.77,3.35-4.9,5-8.49-1.64,3.45-.12.67-.02,1.07.6-.81,1.49-2.05,1.33-1.64.75-1.71,1.7-2.6,2.69-5.05.16-.04.92-1.76.95-1.27,1.03-2.19-.41.43-.42.19.35-.87.79-1.77,1.29-2.73.26-.47.52-.96.79-1.46.26-.51.52-1.03.79-1.56.54-1.07,1.09-2.18,1.62-3.35.49-1.18.95-2.42,1.36-3.69.82-2.15,1.1-3.5,1.46-4.78.35-1.28.67-2.52,1.25-4.57.6-1.31-.04,1.23-.04,1.23.86-2.16,1.43-3.82,1.92-5.95-.05.45.15.03.45-.58.47-1.7.01-1.22.77-3.41,0,.41.04.95-.1,1.8.51-2.01.81-4.05,1.29-6.14.31-.51-.08,1.31-.17,2.07.59-2.34,1.33-6.11,1.26-6.89l-.45,1.48c.19-.86.33-.39.23.25-.27,2.06-.77,2.88-.9,2.96l.3-1.5c-.44.7-.81,2.18-1.17,3.86-.17.84-.35,1.73-.53,2.6-.2.86-.41,1.7-.64,2.43l-.03-1.34-.57,3.11c-.29.61-.65.98-.27-.49-.82,2.04-.43,1.9-1.24,3.62-.1.19-.09.09-.04-.1l-.56,2.07c.05-.43-.39.24.08-.99-.7,1.79-1.17,3.27-1.54,4.46-.37,1.2-.65,2.11-1.04,2.73l.09-.31c-1.87,5,.1.59-1.09,4.44-.57.74-1.15,1.47-1.76,2.17l.06.6c-.24.5-.71,1.48-.74,1.24-.66,1.95.27-.26-.05.9-.65,1.16-1.48,2.79-2.18,4.2-.35.7-.68,1.34-.97,1.83-.3.48-.56.79-.74.87-.26.94,1.4-2.12.15.42-.43.23-.81.95-1.26,1.87-.44.92-.97,2.03-1.73,2.99.17-.77,1.49-2.64,0-.71-.39,1.47-2.53,3.96-3.67,5.65.12.14-.48,1.07-1.34,2.33-.89,1.24-2.11,2.74-3.1,4.14,0-.07-.23.23-.66.7-.43.48-1.05,1.15-1.73,1.9-.69.75-1.4,1.61-2.17,2.36-.76.75-1.48,1.46-2.05,2.01l.02-.11c-.09.34-.68,1.12-1.51,1.98-.86.83-1.88,1.82-2.74,2.65-.08-.23.18-.58,1.06-1.53l-1.64,1.52c-.3.46-.79.96-1.9,1.9l.26-.57c-1.16.93-2.24,1.97-3.49,2.99-1.28.97-2.65,2-4.27,3.02-.01.18.71-.11,1.03-.14.16-.01.23.04.05.26-.18.22-.6.6-1.46,1.16-.2-.04-.46-.16.42-.77-.29.2-1,.75-1.63,1.07l1.26-1.05c-1.54.84-.67.65-1.88,1.37-.08-.18-.96.43-.86.19.29-.2,1.08-.57,1.49-.92-1.37.78-3.02,1.74-3.67,1.86.18.03.13.23-.88.8-2.62,1.42-1.01.27-2.59,1-.55.5-2.36,1.12-2.28,1.42-.8.36-1,.3-1.34.37-1.3.87-6.66,2.7-4.92,2.4l.38-.12c-.07.03-.15.06-.23.1h.01s-.01,0-.01,0c-2.3,1.11-4.87,1.73-7.39,2.45-1.29.27-2.57.53-3.84.8-.64.13-1.26.29-1.89.4-.63.1-1.26.21-1.88.31v-.1c-2.94.67-6.62.82-8.74,1.19-.89,0-2.1-.18-1.72-.3-1.14.04-1.78.07-2.54.1-.77.05-1.65-.05-3.29-.27,2.3.02-.78-.22,2.35.07-1.47-.18-2.38-.28-3.3-.4-.93-.11-1.9-.09-3.48-.27,1.1-.07-2.14-.69-3.54-.85l2.01.53c-.78-.12-1.52-.24-2.22-.36-.7-.18-1.37-.37-2.04-.56l.81-.13c-1.43-.5-2.82-.83-4.14-1.2-1.3-.44-2.55-.82-3.77-1.19-1.24-.32-2.34-.88-3.43-1.37-1.07-.53-2.13-1.03-3.05-1.75-.74-.32-.07.18.66.59.74.4,1.5.82.79.63-1.28-.57-2.41-1.47-3.37-2.17-.95-.71-1.7-1.29-2.07-1.51-1.53-1.13-2.29-1.58-3.12-1.99-.81-.44-1.7-.81-3.17-2.18.32.42.5.98-1.88-.87-.53-.46-.94-.85-1.24-1.17-.28-.33-.44-.58-.5-.73-.12-.3.17-.2.84.37.52.42.74.66.69.67.72.55,1.66,1.27.9.46l-.35-.14c-1.05-.91-3.73-3.65-2.97-3.14-1.58-1.39-.78-.49.29.64-2.49-2.57-3.9-4-6.26-6.83.32.49.59.98.2.54-3.27-4.32-1.67-1.72-3.99-4.58-1.06-1.82.78.36-1.47-2.58-1.2-1.92-.01-.57.58.11-2.18-2.58-3.32-5.33-4.33-6.95l1.02,1.45c-.6-.87-1.09-1.59-1.52-2.36.09.34.2.67.31.99-.52-.9-.92-1.69-.84-1.71-.67-.85.07.91-1.17-.83-.29-.63-.84-1.54-1.32-2.36-.47-.82-.82-1.58-.79-1.86.95,1.97.99,1.81.97,1.59-.01-.23-.05-.53.88,1.06-.38-.6-.83-1.35-1.25-2.31-.04-.16.13.1.27.34-1.65-3.85-1.23-1.52-3.15-5.41.4.42-.13-1.06-.46-1.68.74,1.58.09.88-.72-.51-1.08-2.57-1.36-2.71-1.93-4.05l.61,1.55c-.39-.45-.92-1.73-1.75-3.5.06-.21.79,1.58.57.92-1.18-1.85-1.59-4.63-2.91-7.33-.39-1.34.26-.25-.1-1.42-1.39-3.08-1.09-3.49-2.45-6.77.12,1.04.23,1.19-.82-1.08.71,1.81,1.39,3.63,2.15,5.42-.55-1.12-1.1-2.25-1.62-3.39.57,1.67,1.43,3.43,1.76,4.44-.81-1.6-.69-1.45-.58-.59-.54-2.37-1.83-4.42-2.55-7.13l.59-.11c-.57-2.02-1.23-3.75-1.91-5.64-.68-1.88-1.39-3.93-1.89-6.57.08.57.18,1.14.29,1.71-.42-.64-.78-3.23-1.11-4.94.21.13.13-.95.18-1.69-.08.05-.17-.92-.26-1.95-.08-1.04-.15-2.15-.33-2.4.08-.79.24-1.58.38-2.35.27-2.12.43-3.29.61-4.49.21-1.18.43-2.39,1.42-4.22-.19.61-.04.5.02.57.06.07,0,.28-.45,1.57.5-1.26,1.15-2.3,1.02-2.39.26-.31.64-1.18,1.18-2.02.5-.87,1.17-1.71,1.64-2.12.17-.23.24-.42.42-.69.17-.27.44-.62,1.03-1.11.15-.08.06.08.06.08-.1-.12,1.82-1.59.6-.95,1.87-1.05,4.48-2.52,7.35-2.82l.43-.06c.13-.02.25-.05.34.06.24.2.48.39.71.58.51.47,1.01.93,1.4,1.44.85.97,1.36,2.02,1.67,2.87.68,1.29,1.19,2.85,1.42,4.43.24,1.58.23,3.17.1,4.53-.05-.18-.1-.02-.04-.53-.26,1.85-.28,2.44-.26,3.1,0,.66,0,1.41-.75,3.46-.52,1-.37.44-.16-.21.18-.66.41-1.4.15-.76-.4.19-.74,1.43-1.28,2.93-.53,1.49-1.24,3.25-2.09,4.45l.29-.64c-1.19,1.87-2.38,4.9-4.55,7.85,0,0,.06-.18-.07-.07-1.14,2.25-4.07,6.02-6.49,8.61.58-.98,1-1.26.36-.95-1.06,1.18.62-.05-1.51,2.31-.82.65-2.46,2.26-2.86,2.31.67-.75,1.33-1.5,2.03-2.23-1.34.87-2.61,2.89-3.73,4.02l.02-.25c-2.99,3.51-2.74,3.81-5.92,7.61l.41-.32c-1.4,2.34-1.61,1.61-3.07,3.9l-.82.39c-1.05,1.45-3.57,5.14-5.48,7.7.88-1.61,3.07-4.64,4.37-6.57-1.1,1.39-3.69,4.74-4.1,5.59.41-.58.88-1.35,1.36-1.87-1.09,1.9-2.72,4.24-4.9,7-.2-.95-5.84,7.07-7.95,8.62-1.88,2.47-3.89,4.79-6.09,7.12-1.08,1.18-2.23,2.33-3.41,3.54-.29.3-.59.6-.88.91-.29.27-.59.54-.89.82-.32.26-.64.53-.97.8-.34.25-.69.51-1.04.77,1.17-.49.77-.19.15.27-.62.46-1.5,1-1.15,1.15-1.39.91-1.98,1.17-2.11,1.22-.78.32-1.55.65-2.34.93-.8.25-1.58.56-2.39.74-.59.1-.23-.05.25-.24.48-.19,1.06-.48.97-.51-1.66.65-2.06.63-2.29.65-.24-.02-.32-.03-1.47.17.26.05-.02.2-.61.39-.59.22-1.5.39-2.5.51.95-.06,1.9-.13,2.85-.3-1.18.42-2.07.54-2.78.64-.71.12-1.26.08-1.8.06-1.09-.02-2.15-.06-4.63-.04.52.01,1.05-.06,1.57-.13-.32,0-.7.04-1.13.01-.43-.04-.91-.08-1.43-.13-1.04-.04-2.17-.34-3.32-.53-1.13-.27-2.25-.62-3.25-.89-.97-.36-1.83-.65-2.47-.79-.2-.12-.4-.3-.44-.38-.03-.09.1-.04.63.16-2.75-1.4-5.76-3.14-8.4-5.12-2.65-1.96-4.85-4.25-6.32-6.18l.41.27c-.75-.88-1.52-1.38-2.27-2.65.09.02.39.29.09-.15-.2-.24-.7-.83-1.26-1.52-.55-.7-1.09-1.56-1.48-2.23l.85,1.03c-1.59-2.6-2.71-4.65-3.83-6.58-.55-.97-1.03-1.95-1.56-2.95-.48-1.03-.97-2.1-1.44-3.3.21-.07-.05-1.26-.44-2.72-.34-1.48-.83-3.21-1.08-4.4l.08.07c-.9-3.45-1.58-6.42-2.19-9.34-.63-2.92-1.12-5.8-1.53-9.12.05-2.09-.17-5.58-.26-9.4-.09-3.82-.07-7.96.17-11.28-.11,1.02-.34-.18-.34-1.36.14-1.56-.1-4.34.29-4.07l-.04.56c.45-1.16.56-4.37.78-6.87l-.49-.46c.66-3.24,1.1-7.53,1.46-11.45.43-3.92.77-7.47,1.39-9.2.09-1.59.38-3.54.47-5.12l.27.13c.74-4.35,1.09-6.52,1.91-11.9l.02,1.13c.52-3.03-.18-3.96.27-6.76l.56-.77c.88-5.29,2.17-10.58,2.69-15.88.05.1.14.27.01,1.13.44-2.49,1.92-9.6,1.19-8.79.38,0,.96-5.46,1.24-8.36l.2.49c.03-2.48-.05-2.57.39-5.96.15-.8.33-.67.09.39.54-2.65.05-2.12.68-5.34v1.23c.43-2.75.3-2.54.32-4.09.12-1.75.77-5.22,1.08-5.59-.11-.39-.09-1.92.16-3.54.12-.21.11.39.1.69.73-4.6.52-6.9,1.08-10.06.1-.06.16-.26.22-.52-.34,3.68-.74,6.63-.72,6.35.26.03.65-2.93.72-.53.12-2.4.05-6.53.47-9.42.04-.14.08-.27.13-.38v.3c.1-.67.11-1.27.11-1.84.11-.92.19-1.51.26-2.4.23-.33.39-3.41.48-4.9-.29.11-.15-1.84-.47-.03.02-.24.04.28-.03,1.27,0,.22-.02.49-.02.64,0-.03-.01-.07-.02-.1-.07.98-.16,2.25-.26,3.69-.05-1.18-.08-2.42.2-4.05-.12-.78-.25-1.63-.33-2.1.49-2.01.9-5.93,1.17-6.47-.01-2.28-.02-4.96-.04-7.44-.07-2.47-.26-4.73-.54-6.15-.09-1.29.13-1.49.2-1.98.07.75.07,1.63.16,2.04-.11-2.59-.4-7.66-.77-8.25-.02-3.26.45,1.81.12-2.66.06.2.11.4.16.6-.12-4.41-.6-7.99-1.37-11.62-.34-1.82-.68-3.67-1.05-5.67-.38-1.99-.72-4.14-.97-6.58.07.68.11,1.01.08,1.16-1.77-11.03-5.73-22.24-9.72-32.49-1.23-2.88-1.59-3.09-2.56-4.74l-.02-.75c-.54-.95-1.21-1.83-1.82-2.73-.61-.98-1.11-1.94-1.58-2.89-.48-.95-.85-1.93-1.39-2.87-1.04-1.89-2.13-3.96-3.97-6.25.09.24.2.48.27.73-1.2-1.73-4.05-5.29-3.65-5.16-.16-.15-.58-.43-.98-1.15l.09-.15-3.57-3.76c-1.26-1.56-1.04-1.54-.98-1.7.05-.15.01-.52-2.08-2.59-1.59-1.51-4.72-4.06-4.21-3.41.62.63,1.52,1.66,1.45,1.82l-1.46-1.34c-.58.08-1.96-.62,1.22,3.01l2.57,2.17.6.92-2-1.98c.96,1.29,1.87,1.82,2.68,2.63.09.29.33.7.73,1.23l2.48,2.21c.12.42-1.24-.89.12.85,1.16,1.04-.65-1.38,1.12.47.82,1.4.38,1.14,1.65,2.54.06.29-.24.01-.72-.56,1.11,1.26,2.68,3.53,3.4,4.08.74,1.52,3.12,4.74,2.67,4.82.36.39,1.92,2.29,2.62,3.67-1.81-2.21,2.74,5.08,1.88,4.69.75.78,1.52,2.5,2.45,4.36.45.94.93,1.92,1.39,2.88.46.96.84,1.92,1.25,2.75-.11-.18-.33-.53-.43-.84.73,1.95.82,2.56,1.23,3.83.23.05.67.82,1.16,1.78.44.97.91,2.13,1.3,2.92.45,2.54-.93-1.32-1.02-.44.26-.23,1.71,4.09,1.68,3.19.39,1.92.44,1.62.4,2.69.56.19.57,1.72,1.29,3.2.52,2.79-.24.82.72,3.77.09.74-.06.44-.23-.03-.19-.47-.42-1.12-.42-1.12Zm5.38,73.29h0c.06-.64.1-1.18.13-1.52-.03.32-.06.76-.13,1.52Zm-.6,6.2c.08-.75.17-1.69.28-2.69.12-.21.19.04.13.66-.03-.35-.23,1.11-.4,2.03Zm3.11-12.99c-.03.99-.11,1.32-.18,1.45.03-.47.06-1.01.1-1.73,0-.03-.02-.09-.03-.12.05.1.09.21.11.4Z"/>
    <path class="cls-1" d="m90.11,150.13c0-.14,0-.22.01-.41-.04.2-.07.39-.11.59.02.12.04.25.06.36.01-.18.02-.37.04-.53Z"/>
    <path class="cls-1" d="m278.84,374.25l-.12.04c.11-.03.2-.05.27-.06-.09.02-.09,0-.15.02Z"/>
    <polygon class="cls-1" points="73.55 250 73.62 250 73.64 249.45 73.55 250"/>
    <path class="cls-1" d="m308.35,357c.07-.03.18-.1.38-.26-.03,0-.19.11-.38.26Z"/>
    <path class="cls-1" d="m318.41,345.98l1.37-1.62c-.6.69-1.03,1.2-1.37,1.62Z"/>
    <path class="cls-1" d="m325.1,336.65c.04-.15.03-.2.02-.25v.02s-.02.24-.02.24Z"/>
    <path class="cls-1" d="m183.01,324.33c-.07-.14-.13-.28-.19-.4-.47-.93-.16-.29.19.4Z"/>
    <path class="cls-1" d="m215.2,367.43c-.49-.3-1.01-.56-1.48-.94.72.65,1.37,1.04,1.48.94Z"/>
    <path class="cls-1" d="m175.96,266.01s0,0,0,0c.09-.11.16-.2.25-.31l-.25.3Z"/>
    <path class="cls-1" d="m211.79,364.85c.71.67,1.34,1.18,1.94,1.63-.6-.53-1.29-1.15-1.94-1.63Z"/>
    <path class="cls-1" d="m343.64,290.72l.14-.53s-.03-.03-.03-.07l-.11.61Z"/>
    <path class="cls-1" d="m343.75,290.11l.11-.6c-.06.27-.12.51-.11.6Z"/>
    <path class="cls-1" d="m344.08,288.24l-.23,1.27c.1-.43.24-.97.23-1.27Z"/>
    <path class="cls-1" d="m339.44,305.31l.04.2c0-.1,0-.16-.04-.2Z"/>
    <path class="cls-1" d="m337.99,309.69c.41-1.02,1.09-2.55,1.52-4.02l-.03-.16c-.09.73-1.29,3.15-1.49,4.18Z"/>
    <path class="cls-1" d="m329.26,326.81c.59-1.13,1.23-2.25,1.79-3.4-.38.56-.89,1.29-.17-.3-2.42,4.19.69-.78-1.61,3.69Z"/>
    <path class="cls-1" d="m323.22,337.03c1.05-1.77-.15-.06-.14-.19-.61,1.16-.75,1.44.14.19Z"/>
    <path class="cls-1" d="m252.66,378.88l.21-.26c-1.57.03-.02.1-.21.26Z"/>
    <polygon class="cls-1" points="236.19 378.03 237.67 378.59 238.45 378.55 236.19 378.03"/>
    <polygon class="cls-1" points="227.7 373.04 228.33 373.3 225.93 372.26 227.7 373.04"/>
    <path class="cls-1" d="m190.13,263.88l-.05-.56c-.78-.68-1.12-.61.05.56Z"/>
    <path class="cls-1" d="m166.99,315.72c-.55.43-1.75,1.73-2.31,2.67.91-1.08,1.89-2.09,2.31-2.67Z"/>
    <path class="cls-1" d="m74.07,266.76v1.26c.03-.78.08-1.57.14-2.36l-.14,1.1Z"/>
  </g>
  <g>
    <path class="cls-1" d="m361.31,297.09c.09.01.27-.06.21-.16l-.34.02.13.14Z"/>
    <path class="cls-1" d="m361.68,296.2c-.19-.08-.5-.14-.77.03.34.03.22.1.63.12.07.09-.05.21-.17.23.09.01-.02.18.2.18.2-.21.16-.39-.09-.51.06-.06.15-.05.21-.06Z"/>
    <path class="cls-1" d="m359.11,285.74l-.02.08s.02-.05.02-.08Z"/>
    <path class="cls-1" d="m357.38,279.29s.06.06.09.05c-.03-.04-.06-.07-.09-.05Z"/>
    <path class="cls-1" d="m357.4,278.1s0,.05,0,.07c.02-.03.03-.06,0-.07Z"/>
    <path class="cls-1" d="m359.11,285.74l.05-.2c-.11.02-.05.11-.05.2Z"/>
    <path class="cls-1" d="m360.5,295.01s.06.05.11.07c-.02-.03-.04-.05-.06-.08h-.05Z"/>
    <path class="cls-1" d="m360.2,288.48l.02.05s.09,0,.14,0l-.16-.06Z"/>
    <path class="cls-1" d="m360.9,290.63c0-.05-.28.01-.4.03.12,0,.18.02.22.05.05-.01.11-.04.18-.08Z"/>
    <path class="cls-1" d="m361.44,294.2l.06.05s-.04-.03-.06-.05Z"/>
    <path class="cls-1" d="m359.8,286.91s.07-.03.09-.05c-.03.01-.06.03-.09.05Z"/>
    <path class="cls-1" d="m327.24,290.39s-.03-.02-.04-.03c.01.03.03.04.04.03Z"/>
    <polygon class="cls-1" points="324.51 291.56 324.52 291.52 324.4 291.42 324.51 291.56"/>
    <path class="cls-1" d="m357.15,276s0,.01,0,.01c.05.04.03.02,0-.01Z"/>
    <path class="cls-1" d="m346.05,263.27c.34.02-.05.5.39.46-.1-.06-.06-.54-.39-.46Z"/>
    <path class="cls-1" d="m360.51,294.94s-.02-.06-.03-.09c0,.04.01.07.03.09Z"/>
    <path class="cls-1" d="m346.44,263.73h0s.04,0,.04,0c-.02,0-.03,0-.05,0Z"/>
    <path class="cls-1" d="m355.62,271.44s-.08.05-.1.08c.03,0,.06-.03.1-.08Z"/>
    <path class="cls-1" d="m356.26,274.98v-.1s0,.07,0,.1Z"/>
    <path class="cls-1" d="m354.71,269.77c0-.05.04-.08-.02-.13-.01,0-.02.02-.03.03.04.01.07.04.04.1Z"/>
    <path class="cls-1" d="m354.16,267.92s-.03.03-.04.05l.03.05v-.1Z"/>
    <path class="cls-1" d="m330.82,285.73c-.09-.02-.17-.05-.25-.09.17.1.05.37.25.09Z"/>
    <path class="cls-1" d="m360.65,294.96c-.07,0-.11,0-.13-.02l.03.06s.08-.02.1-.04Z"/>
    <path class="cls-1" d="m352.56,270.33l-.05-.31c0,.09.02.2.05.31Z"/>
    <path class="cls-1" d="m339.48,274.9l-.02.08s.03-.04.02-.08Z"/>
    <path class="cls-1" d="m352.21,269.16c.08-.08.12-.15.14-.22-.02,0-.05-.01-.08-.01l-.06.23Z"/>
    <path class="cls-1" d="m330.56,285.64h0s0,0,0,0Z"/>
    <path class="cls-1" d="m329.81,287.64c.19-.22-.2-.33-.32-.52.14-.34.31.04.53.07.06-.23-.1-.57.02-.69.05.03.09.02.13.09-.08-.36.42-.54.3-.98.04,0,.07.02.09.03-.17-.08-.32-.19-.42-.29.08-.11-.03-.34.19-.22-.06.06.02.12.05.2v-.17c.35.12-.02.22.18.38.08-.28.05-.7.26-.8.29.18-.21.45.19.42l-.3.17c.57.15-.15.13.44.31.34-.26.16-.47.5-.74-.09-.19-.24-.15-.33-.34.11-.67.96.17.88-.45-.11-.23-.41-.53-.04-.63l.23.32c.28-.29-.28-.53.18-.69.07.15-.1.33-.03.31.41-.02-.05-.29.08-.45l.29.18c.23-.37.34-.89.59-1.3.06.08.09.21.24.19.25-.58.84-.98,1.36-1.3l-.09-.36s.16,0,.17.09c.23-.11-.14-.13-.16-.28.06-.11.24-.03.26.09.06-.47.3-1.22.81-1.35l.02.12c.3-.18-.24-.67.17-.73v.08c.55-.47.83-1.26,1.52-1.4-.26-.35.59-.43.16-.84.48-.13.49.02,1-.3.12-.1-.14-.41-.07-.59l.24.19-.09-.4.37.12.05-.19c-.06.04-.2.03-.26-.03.06-.3.59-.39.72-.3l.21-.67c.09.09.05.2.06.32-.03-.47.29.15.27-.28-.08-.01-.13-.13-.17-.18.25,0,.47-.29.58-.55l.13.17c.35-.34.56-.86.91-1.28-.2.09-.46-.18-.39-.32l.29.15c-.09-.21-.2.05-.26-.27.16-.14.37.13.38.28l.07-.26c.08.05.09.13.18.22-.09-.21.52-.13.34-.46l.08.05c.34-.42.41-.69.68-1.04-.21-.18-.06-.28-.15-.52.27-.2.67-.34.9-.66.06-.3-.13-.21-.19-.41.21.14.44-.18.46.1.26-.39.34-.5.55-1.1-.12-.02-.2.01-.25-.07.04-.11.24-.12.32-.04v.04c.12-.76,1.55-.74,1.47-1.49v.04s.13-.6.13-.6c.18-.15.06.23.29.2.02-.69.6-.6.71-1.09.38.16.58-.04.78-.25.2-.21.41-.45.69-.32l-.1-.15c0-.2.15.04.23.04-.07-.12-.16-.1-.15-.21.32-.28.76-.33.99-.17.24.15.34.39.42.61.07.17.83-.45.66.1-.12.02-.23.04-.34.07.64.31.49,1.3,1.05,2.01-.09-.03-.18,0-.21-.08-.18.24.17.63.36.57.02.13-.16.08-.23.18-.09.21.42.34.22.49-.03.03-.09-.03-.12-.05.14.08.12.52.36.34-.04.34.29.54.2.82.34.07,0,.56.44.48-.44.11-.19.63.07.76-.15-.02-.09.21-.29.18.07.21.21.39.42.28-.4.55.66.68.06,1.1.42.57.76,1.12,1.03,1.67-.44.11-.23-.63-.68-.47.34.49.81.7.86,1.27-.02.16-.21-.02-.3-.05.34.49.28,1.07.66,1.49-.04.01-.1-.03-.15-.07.04.09,0,.24.2.17l-.08-.08c.24-.24.71.2.87.18-.61,0,0,.52-.79.48.06.05.17.1.3.05-.01.11-.08.16-.26.11.21.31.38.13.47.44-.1.03-.15-.02-.27-.02.23.1.47.21.46.49-.06,0-.13.05-.15-.02.16.44.72.62.69,1.17-.46-.02-.09.21-.44.34l.19.23.14-.16c.06.24.39.36.33.6l-.2-.13.2.42.06-.29c.25.18.45-.16.44.18-.06-.05.06.23-.11.42h0c.15.08.3.16.27.36-.1.08-.41.08-.47.13.33.02.25.52.61.57-.09-.03-.28.03-.31.05l.27.02c-.05.13-.08.16-.23.19.05.34.42-.24.34.21-.03-.02-.06,0-.12-.05.01.42.38.7.36,1.1-.33.21-.18-.29-.45-.07.22.49.75.94.81,1.46v-.1c.54-.08-.13.45.19.63-.06-.05-.31,0-.24,0,.02.36.33.66.65,1.13l-.15-.02c-.06.24.09.55.1.78.15.03.17.16.33.02-.54.89.78,1.16.34,1.93-.02-.07-.17-.14-.15-.08l.27.47c.21-.11.11-.11.26-.26.15.02.29.14.33.26-.21-.18-.36.11-.45.24.06-.04.15-.03.21-.05-.32.38.46-.09.3.35l-.12.02c.1.12.29.2.3.35-.24.14-.16-.11-.38-.05.08.2.6.26.4.52-.1-.07-.14-.19-.23-.26-.24.29-.16.29-.16.46v-.02s-.03.39-.03.39l.06-.11c.74.06.28.48.82.7-.51-.21-.26.02-.55.08-.05.11-.1.27-.2.26.28.09-.1.33.31.45-.09.04.04.18-.2.21.14.19.15-.1.27-.12.42.23-.16.88.42,1.22.3.35.64.33.91.66-.11.17-.37,0-.37,0-.08.25,0,.39.16.55-.09-.01-.15.05-.24.14.07.15.37,0,.29.25-.11,0-.29,0-.42-.04.14.16.37.28.51.45-.15.1-.28-.04-.41-.08.14.19.31.51.59.49l.05-.16c.04.07-.21.11-.27.06-.26-.12.01-.29.1-.33l.1.12c.51-.3-.25-.51-.3-.79h.43s-.41-.18-.41-.18c.09-.09.3-.2.4-.08.14-.25-.19-.13-.02-.36.03-.03.05-.03.07-.01l-.17-.15c.09.01.27-.12.25.02.13-.41-.46-.46-.2-.68l.03.02c-.28-.43-.31.04-.76-.21l.65-.45-.31.04c0-.05-.01-.15.11-.17-.25-.12-.12.07-.34.02.2-.31-.32-.61.13-.8-.25-.02-.1.28-.33.07.48-.22-.17-.26,0-.55.28-.01.2.23.37-.05-.48,0-.03-.45-.17-.6-.35.1-.26-.35-.47-.62.12-.02.02-.63.06-.95h.06c-.37.04-.39-.27-.52-.46.21-.05.31-.04.44.05l-.06-.2c-.13-.01-.21-.06-.28-.17l.28-.03c-.09-.26-.47-.44-.39-.83-.25.05-.6.47-.87.16.13-.05.35-.13.43-.06-.03-.03-.14-.08-.1-.16l.27.08c.05-.18-.21-.03-.23-.16.19-.05.11-.13.26-.16.03.03-.05.13.04.16,0-.15.05-.35.18-.45-.1.04-.25.08-.31-.02-.09-.26.2-.16.25-.34-.15-.03-.06-.23-.35-.15-.02-.08.11-.13.17-.18-.17-.1-.23-.63-.48-.39v.04s-.03-.02-.03-.02h0s0,0,0,0c-.41-.37-.12-.98-.37-1.39l.09-.03c-.19-.23-.24-.57-.5-.7-.02-.08.12-.24.24-.24-.13-.18-.25-.17-.18-.51.23.16.13-.11.18.17,0-.29.14-.39-.21-.6.27.02.25-.29.14-.39l-.12.24c-.08-.13-.09-.26-.11-.39l.34-.03c.23-.66-.95-.78-.42-1.38-.27-.08-.07.34-.37.29-.03-.26.35-.66.33-.74.08-.39-.56-.18-.55-.57-.1.08-.39.21-.58-.02-.03-.26.39-.45.52-.32.03.06,0,.1-.04.11.07.07.15.16.24.02h-.12c.08-.16-.04-.5.18-.47-.16-.16-.21-.02-.23.13.07-.37-.14-.5-.13-.86-.05.07-.17.16-.18.11,0-.52-.28-.15-.43-.46.12-.24.43-.06.19-.34.06-.24.29-.13.41-.08-.31-.23-.02-.6-.03-.79l.14.13c-.08-.08-.1-.16-.13-.23l-.2.16c.01-.1-.01-.18.08-.21-.18-.05-.36.19-.62.06.08-.16-.24-.34.05-.47.01.42.29-.13.44.18-.05-.05-.08-.13-.06-.24.03-.02.07,0,.09.01.16-.45-.39-.07-.5-.46.18,0,.3-.19.24-.24.04.16-.26.16-.43.06.06-.29-.18-.24-.2-.37l-.02.17c-.18,0-.2-.13-.3-.29.13-.05.14.13.18.05-.36-.1.18-.52-.1-.73.08-.16.32-.11.36-.24-.31-.23.14-.39-.14-.65-.2.16-.14.16-.43,0l.31.47-.43-.23c.04.16.24.29.23.39-.23-.1-.17-.1-.34.03.28-.32-.33-.36-.17-.68l.57-.16c.14-.45-.49-.57-.49-1.09l-.05.18c-.24,0-.12-.29-.26-.42.19-.04.23-.16.33-.26-.14.05-.09-.36-.48-.29l.19-.29c-.01-.42-.67-.28-.72-.68.24.05.32-.16.54.05-.04-.13-.03-.25-.17-.21.1-.11-.36-.27-.21-.44-.1-.03-.3.01-.33-.13.03-.03.09-.03.09-.03-.09.03-.19-.18-.37,0,.48-.56-.36-1.06.04-1.55-.14-.25-.3-.56-.39-.81.06,0,.09-.03.09.03.07-.39-.61-.05-.52-.49.25-.29.23.16.31,0,.61-.24-.22-.44.06-.81l.06.05c.15-.27-.38-.41-.44-.76,0,0,.06,0,.09-.03-.39-.13-.63-.53-.85-.81.28,0,.18.1.4-.07-.09-.13-.37.2-.55-.05.09-.15.09-.41.31-.57.06.09.11.19.16.28.25-.31-.2-.37-.24-.55l.14-.06c-.35-.43-.65-.19-1.03-.58l-.03.13c-.46.12-.06-.34-.47-.26l.11-.39c-.24-.03-.82.03-1.15.1.22-.28.71-.31,1.05-.33-.19-.12-.75-.24-.89-.04.09-.02.22-.11.29-.02-.34.23-.64.35-1,.37,0-.38-.27-.41-.58-.36-.31.05-.62.17-.88-.05-.52.54-1.25.57-1.82,1.11.59.28-.15.16.29.58-.1.14-.15.17-.19.16-.2.03-.41.05-.62.09-.21-.04.01-.21-.09-.3-.29.24-.29-.07-.59,0,.19.11.14.31-.07.42l.41-.04c-.1.6-.69,0-.78.61-.02-.08-.03-.16-.05-.25-.08.28-.58.71-.35,1.21-.08-.01-.25-.07-.22-.18-.43.41-.41,1.35-.94,1.51l-.09-.13c-.04.11.1.32-.1.34-.04-.04-.09-.13-.13-.09,0,.08.02.39-.14.45l-.05-.2c-.51.32-.23.94-.45,1.38-.34-.28-.74-.02-.93.12l-.04-.05c-.46.49-.43,1.11-.68,1.7-.61,0-.97.89-1.57,1.2.12-.02.26.23.22.34-.16.06-.01.5-.31.23l.04-.04c-.38-.16-.48.13-.64.31l.39.36c-.98,0-.78,1.42-1.52,1.24.01.2-.1.34-.09.53l-.22-.18c-.31.27-.47.41-.73.84l-.09-.21c-.19.21.41.79.26,1l-.38-.2c-.3.39-.91.55-.92,1.17-.04-.05-.13-.13-.09-.21-.15.17-.79.52-.28.82-.3-.23-.35.37-.39.69l-.19-.21c.14.4.21.47.09.77-.07.04-.21-.09-.1-.12-.27.1.08.32-.22.46l-.07-.2c-.18.19-.09.23-.02.47-.01.2-.36.33-.58.2.1.12.17.36.02.43-.09-.04-.1-.12-.1-.16-.42.21-.15.7-.54.76-.08-.05-.12-.07-.16-.07.22-.26.4-.46.4-.43-.2-.16-.41.02-.55-.37.01.29.1.85-.16.98-.03,0-.05-.01-.09-.03v-.04c-.06.03-.08.09-.08.16-.09.04-.14.06-.2.12-.19-.11-.29.17-.38.27.23.17.08.28.36.29-.03,0,0-.04.04-.12,0-.02.02-.04.01-.06v.02c.07-.07.13-.17.21-.28.04.17.07.34-.15.36.1.17.19.34.23.43-.42-.1-.81.05-1.03-.06-.14.42-.54.83-.29,1.37-.02.14-.2.01-.3,0,0-.09.06-.15.02-.22-.04.27-.4.58-.15.86-.32.13-.16-.34-.37.01l-.05-.11c-.97.26-.09,1.61-1.24,1.84.08-.02.11-.03.17,0-.9.59-1.08,1.84-2.12,2.29-.26.16-.1.33-.07.58l-.27-.14.08.45c-.07.49-1.04.11-1,.83l.2.07c-.15.13-.29.55-.45.38.02.04.12.18,0,.17l-.13-.09-.09.54c-.32.21-.45-.44-.81-.04-.08.19,0,.73.13.74.06-.06.21-.1.33,0l-.05.19c.34.32.63.73,1.16.58l-.03-.42.24.06-.15.21c.26.02.17-.17.14-.34.11.06.2.07.28.05l-.15-.52c.17.09.2.33.4.24-.07-.24-.4-.15-.36-.42.26.02.37.16.33-.09.11.06.15.13.14.22-.01-.21.21-.36.07-.58.3.04.28-.45.61-.16-.05-.1-.1-.43-.02-.55.25.53.36-.4.76.01-.25-.45.27-.68.28-1.11.02.04.05.12.02.12.15-.13.3-.08.45-.12-.29-.27-.17-.56-.26-.83.44.05.27.4.6.57-.25-.19.01-.52-.25-.62.3,0,.19-.05.5.08-.36-.33.04-.18-.1-.49.35-.05.4.24.46-.08.2-.01.18.3.18.3Zm3.63-5.86h0c-.03.05-.06.1-.08.12.02-.03.04-.06.07-.12Zm.36-.45c-.05.05-.11.11-.16.19-.09-.05-.15-.12-.11-.17.03.07.16,0,.28-.02Zm-2.28-.28c.03-.1.09-.08.14-.06-.02.04-.05.08-.07.15l.02.03s-.07-.08-.09-.12Z"/>
    <path class="cls-1" d="m331.7,281.41s0,.03,0,.04c.03,0,.06,0,.08,0l-.05-.08-.03.04Z"/>
    <path class="cls-1" d="m359.09,285.83h0s-.02.01-.03.02c.01-.01.02-.01.03-.02Z"/>
    <polygon class="cls-1" points="339.19 275.49 339.14 275.45 339.15 275.52 339.19 275.49"/>
    <path class="cls-1" d="m359.06,289.14s-.04.03-.06.06c.02,0,.04-.03.06-.06Z"/>
    <path class="cls-1" d="m359.39,290.46l-.04.21c.03-.1.04-.16.04-.21Z"/>
    <path class="cls-1" d="m359.56,291.51c.05,0,.09,0,.12-.01h0s-.12.01-.12.01Z"/>
    <path class="cls-1" d="m354.48,275.59s-.01-.03-.02-.04c-.08-.08-.04-.02.02.04Z"/>
    <path class="cls-1" d="m356.52,280.17c-.06-.04-.13-.07-.17-.12,0,.09.02.16.17.12Z"/>
    <polygon class="cls-1" points="352.57 270.37 352.57 270.36 352.56 270.33 352.57 270.37"/>
    <path class="cls-1" d="m356.29,279.83c-.03.1,0,.17.06.22,0-.07,0-.17-.06-.22Z"/>
    <path class="cls-1" d="m360.74,295.91v.05s.04,0,.05,0l-.05-.04Z"/>
    <path class="cls-1" d="m360.79,295.96l.05.04s-.02-.05-.05-.04Z"/>
    <path class="cls-1" d="m360.94,296.09l-.1-.09s.02.09.1.09Z"/>
    <path class="cls-1" d="m360.47,294.54h-.1s.06.01.1,0Z"/>
    <path class="cls-1" d="m360.32,294.15c0,.1-.14.3-.04.42h.08c-.16-.03.15-.38-.05-.42Z"/>
    <path class="cls-1" d="m361.02,292.09l.02.36c.09-.09.2-.21.27-.06.18-.52-.21.16-.3-.3Z"/>
    <path class="cls-1" d="m360.86,291c.1.17.15-.05.21-.06-.13-.09-.16-.11-.21.06Z"/>
    <path class="cls-1" d="m358.59,283.39l.25-.05c-.08-.13-.1.03-.25.05Z"/>
    <polygon class="cls-1" points="356.89 282.31 356.78 282.49 357.03 282.49 356.89 282.31"/>
    <polygon class="cls-1" points="358.38 280.93 358.44 280.98 358.28 280.78 358.38 280.93"/>
    <path class="cls-1" d="m354.49,268.18l-.29.13c.08.08.43,0,.29-.13Z"/>
    <path class="cls-1" d="m351.87,262.64c.05-.17-.07-.4-.28-.35.14.12.19.32.28.35Z"/>
    <polygon class="cls-1" points="338.18 272.72 338.17 272.56 338.1 272.79 338.18 272.72"/>
  </g>
</svg>